TITLE ""
FILE "Step3_Track46.mp3" MP3
  TRACK 01 AUDIO
    TITLE "Step3_Track46_01"
    INDEX 01 00:00:00
  TRACK 02 AUDIO
    TITLE "Step3_Track46_02"
    INDEX 01 00:00:22
  TRACK 03 AUDIO
    TITLE "Step3_Track46_03"
    INDEX 01 00:02:05
  TRACK 04 AUDIO
    TITLE "Step3_Track46_04"
    INDEX 01 00:02:52
  TRACK 05 AUDIO
    TITLE "Step3_Track46_05"
    INDEX 01 00:03:54
  TRACK 06 AUDIO
    TITLE "Step3_Track46_06"
    INDEX 01 00:04:02
  TRACK 07 AUDIO
    TITLE "Step3_Track46_07"
    INDEX 01 00:07:01
  TRACK 08 AUDIO
    TITLE "Step3_Track46_08"
    INDEX 01 00:07:16
  TRACK 09 AUDIO
    TITLE "Step3_Track46_09"
    INDEX 01 00:08:12
  TRACK 10 AUDIO
    TITLE "Step3_Track46_10"
    INDEX 01 00:08:24
  TRACK 11 AUDIO
    TITLE "Step3_Track46_11"
    INDEX 01 00:11:14
  TRACK 12 AUDIO
    TITLE "Step3_Track46_12"
    INDEX 01 00:11:26
  TRACK 13 AUDIO
    TITLE "Step3_Track46_13"
    INDEX 01 00:12:27
  TRACK 14 AUDIO
    TITLE "Step3_Track46_14"
    INDEX 01 00:12:41
  TRACK 15 AUDIO
    TITLE "Step3_Track46_15"
    INDEX 01 00:16:07
  TRACK 16 AUDIO
    TITLE "Step3_Track46_16"
    INDEX 01 00:16:31
  TRACK 17 AUDIO
    TITLE "Step3_Track46_17"
    INDEX 01 00:17:34
  TRACK 18 AUDIO
    TITLE "Step3_Track46_18"
    INDEX 01 00:17:48
  TRACK 19 AUDIO
    TITLE "Step3_Track46_19"
    INDEX 01 00:21:01
  TRACK 20 AUDIO
    TITLE "Step3_Track46_20"
    INDEX 01 00:21:34
  TRACK 21 AUDIO
    TITLE "Step3_Track46_21"
    INDEX 01 00:22:28
  TRACK 22 AUDIO
    TITLE "Step3_Track46_22"
    INDEX 01 00:22:51
  TRACK 23 AUDIO
    TITLE "Step3_Track46_23"
    INDEX 01 00:25:04
  TRACK 24 AUDIO
    TITLE "Step3_Track46_24"
    INDEX 01 00:25:32
  TRACK 25 AUDIO
    TITLE "Step3_Track46_25"
    INDEX 01 00:26:35
  TRACK 26 AUDIO
    TITLE "Step3_Track46_26"
    INDEX 01 00:26:47
  TRACK 27 AUDIO
    TITLE "Step3_Track46_27"
    INDEX 01 00:29:18
  TRACK 28 AUDIO
    TITLE "Step3_Track46_28"
    INDEX 01 00:29:26
  TRACK 29 AUDIO
    TITLE "Step3_Track46_29"
    INDEX 01 00:30:33
  TRACK 30 AUDIO
    TITLE "Step3_Track46_30"
    INDEX 01 00:30:45
  TRACK 31 AUDIO
    TITLE "Step3_Track46_31"
    INDEX 01 00:33:41
  TRACK 32 AUDIO
    TITLE "Step3_Track46_32"
    INDEX 01 00:33:57
  TRACK 33 AUDIO
    TITLE "Step3_Track46_33"
    INDEX 01 00:34:46
  TRACK 34 AUDIO
    TITLE "Step3_Track46_34"
    INDEX 01 00:34:62
  TRACK 35 AUDIO
    TITLE "Step3_Track46_35"
    INDEX 01 00:37:23
  TRACK 36 AUDIO
    TITLE "Step3_Track46_36"
    INDEX 01 00:37:45
  TRACK 37 AUDIO
    TITLE "Step3_Track46_37"
    INDEX 01 00:38:48
  TRACK 38 AUDIO
    TITLE "Step3_Track46_38"
    INDEX 01 00:38:68
  TRACK 39 AUDIO
    TITLE "Step3_Track46_39"
    INDEX 01 00:41:15
  TRACK 40 AUDIO
    TITLE "Step3_Track46_40"
    INDEX 01 00:41:31
  TRACK 41 AUDIO
    TITLE "Step3_Track46_41"
    INDEX 01 00:42:26
  TRACK 42 AUDIO
    TITLE "Step3_Track46_42"
    INDEX 01 00:42:42
  TRACK 43 AUDIO
    TITLE "Step3_Track46_43"
    INDEX 01 00:45:23
